# xmcd
#
# Track frame offsets:
#	150
#	21777
#	40334
#	58485
#	73499
#	95101
#	115162
#	130391
#	147858
#	166112
#
# Disc length: 2512 seconds
#
# Revision: 2
# Processed by: cddbd v1.5.2PL0 Copyright (c) Steve Scherf et al.
# Submitted via: EZCDAudioConverter 7.1.5.1
#
DISCID=9909ce0a
DTITLE=吉馬大對唱 - 吉馬大對唱 10 CD 典藏版
DYEAR=20110616
DGENRE=
TTITLE0=不通認輪
TTITLE1=咱只有這條路
TTITLE2=夢中情
TTITLE3=台灣話
TTITLE4=水中煙
TTITLE5=紅花青葉
TTITLE6=今夜無麥講政治
TTITLE7=若是我回頭來牽你的手
TTITLE8=媽媽你無對我講
TTITLE9=再會啦心愛的無緣的人
EXTD=
EXTT0=
EXTT1=
EXTT2=
EXTT3=
EXTT4=
EXTT5=
EXTT6=
EXTT7=
EXTT8=
EXTT9=
PLAYORDER=
